<svg viewBox="0 0 132.29167 132.29169" xmlns="http://www.w3.org/2000/svg">
      <defs>
        <linearGradient id="linearGradient1">
          <stop offset="0" style="stop-color:#ed2f65;stop-opacity:1;" />
          <stop offset="1" style="stop-color:#2f5ced;stop-opacity:1;" />
        </linearGradient>
        <linearGradient
          gradientTransform="translate(26.227436,-80.901211)"
          gradientUnits="userSpaceOnUse"
          href="#linearGradient1"
          id="linearGradient2"
          x1="0"
          x2="132.29167"
          y1="66.145836"
          y2="66.145836"
        />
      </defs>
      <g>
        <circle
          cx="92.373276"
          cy="-14.755376"
          r="66.145836"
          style="fill:url(#linearGradient2);stroke-width:0.580103"
          transform="rotate(54.075551)"
        />
        <path
          d="m 102.89036,56.210964 c -0.66517,-1.480953 -2.13732,-2.433897 -3.761202,-2.433897 H 74.175048 L 81.140034,25.916574 C 81.600703,24.075003 80.743961,22.15702 79.06538,21.270593 77.387352,20.38444 75.319845,20.758526 74.058781,22.17736 L 30.080968,71.652393 c -1.078555,1.213246 -1.344896,2.947073 -0.679732,4.428026 0.665439,1.481502 2.137872,2.434163 3.761203,2.434163 h 24.954385 l -6.965261,27.860498 c -0.460393,1.84157 0.396075,3.75955 2.074653,4.64598 0.609093,0.32159 1.269035,0.47716 1.923479,0.47716 1.148921,0 2.2797,-0.47991 3.08312,-1.38392 L 102.21063,60.639254 c 1.07883,-1.213512 1.3449,-2.947063 0.67973,-4.42829 z"
          fill="#ffffff"
          style="stroke-width:0.274861"
        />
      </g>
    </svg>